<mxfile host="app.diagrams.net" agent="Mozilla/5.0 (Windows NT 10.0; Win64; x64) AppleWebKit/537.36 (KHTML, like Gecko) Chrome/140.0.0.0 Safari/537.36" version="28.2.5">
  <diagram name="Sayfa -1" id="fAupifIY72GtINzP9to8">
    <mxGraphModel dx="2430" dy="2034" grid="1" gridSize="10" guides="1" tooltips="1" connect="1" arrows="1" fold="1" page="1" pageScale="1" pageWidth="827" pageHeight="1169" math="0" shadow="0">
      <root>
        <mxCell id="0" />
        <mxCell id="1" parent="0" />
        <mxCell id="GJIkSr5zV4e2vEJDAlvQ-1" value="MÜŞTERİ" style="rounded=0;whiteSpace=wrap;html=1;labelBackgroundColor=none;" vertex="1" parent="1">
          <mxGeometry y="-40" width="120" height="60" as="geometry" />
        </mxCell>
        <mxCell id="GJIkSr5zV4e2vEJDAlvQ-2" value="id &lt;b&gt;(PK)&lt;/b&gt;" style="ellipse;whiteSpace=wrap;html=1;" vertex="1" parent="1">
          <mxGeometry x="-60" y="50" width="80" height="50" as="geometry" />
        </mxCell>
        <mxCell id="GJIkSr5zV4e2vEJDAlvQ-3" value="ad" style="ellipse;whiteSpace=wrap;html=1;" vertex="1" parent="1">
          <mxGeometry x="-110" y="-20" width="80" height="50" as="geometry" />
        </mxCell>
        <mxCell id="GJIkSr5zV4e2vEJDAlvQ-4" value="soyad" style="ellipse;whiteSpace=wrap;html=1;" vertex="1" parent="1">
          <mxGeometry x="-80" y="-100" width="80" height="50" as="geometry" />
        </mxCell>
        <mxCell id="GJIkSr5zV4e2vEJDAlvQ-5" value="email" style="ellipse;whiteSpace=wrap;html=1;" vertex="1" parent="1">
          <mxGeometry x="30" y="-110" width="80" height="50" as="geometry" />
        </mxCell>
        <mxCell id="GJIkSr5zV4e2vEJDAlvQ-6" value="şehir" style="ellipse;whiteSpace=wrap;html=1;" vertex="1" parent="1">
          <mxGeometry x="140" y="-80" width="80" height="50" as="geometry" />
        </mxCell>
        <mxCell id="GJIkSr5zV4e2vEJDAlvQ-7" value="kayıt_tarihi" style="ellipse;whiteSpace=wrap;html=1;" vertex="1" parent="1">
          <mxGeometry x="110" y="50" width="80" height="50" as="geometry" />
        </mxCell>
        <mxCell id="GJIkSr5zV4e2vEJDAlvQ-9" value="" style="endArrow=none;html=1;rounded=0;entryX=0.105;entryY=1.053;entryDx=0;entryDy=0;entryPerimeter=0;exitX=0.598;exitY=-0.008;exitDx=0;exitDy=0;exitPerimeter=0;" edge="1" parent="1" source="GJIkSr5zV4e2vEJDAlvQ-2" target="GJIkSr5zV4e2vEJDAlvQ-1">
          <mxGeometry width="50" height="50" relative="1" as="geometry">
            <mxPoint x="-20" y="60" as="sourcePoint" />
            <mxPoint y="40" as="targetPoint" />
          </mxGeometry>
        </mxCell>
        <mxCell id="GJIkSr5zV4e2vEJDAlvQ-10" value="" style="endArrow=none;html=1;rounded=0;entryX=-0.002;entryY=0.64;entryDx=0;entryDy=0;entryPerimeter=0;exitX=1.003;exitY=0.352;exitDx=0;exitDy=0;exitPerimeter=0;" edge="1" parent="1" source="GJIkSr5zV4e2vEJDAlvQ-3" target="GJIkSr5zV4e2vEJDAlvQ-1">
          <mxGeometry width="50" height="50" relative="1" as="geometry">
            <mxPoint x="-50" y="20" as="sourcePoint" />
            <mxPoint y="-30" as="targetPoint" />
          </mxGeometry>
        </mxCell>
        <mxCell id="GJIkSr5zV4e2vEJDAlvQ-11" value="" style="endArrow=none;html=1;rounded=0;entryX=0.5;entryY=1;entryDx=0;entryDy=0;exitX=0.5;exitY=0;exitDx=0;exitDy=0;" edge="1" parent="1" source="GJIkSr5zV4e2vEJDAlvQ-1" target="GJIkSr5zV4e2vEJDAlvQ-5">
          <mxGeometry width="50" height="50" relative="1" as="geometry">
            <mxPoint x="40" y="-30" as="sourcePoint" />
            <mxPoint x="90" y="-80" as="targetPoint" />
          </mxGeometry>
        </mxCell>
        <mxCell id="GJIkSr5zV4e2vEJDAlvQ-12" value="" style="endArrow=none;html=1;rounded=0;exitX=0;exitY=0;exitDx=0;exitDy=0;entryX=1;entryY=1;entryDx=0;entryDy=0;" edge="1" parent="1" source="GJIkSr5zV4e2vEJDAlvQ-1" target="GJIkSr5zV4e2vEJDAlvQ-4">
          <mxGeometry width="50" height="50" relative="1" as="geometry">
            <mxPoint x="-20" y="-40" as="sourcePoint" />
            <mxPoint x="10" y="-80" as="targetPoint" />
          </mxGeometry>
        </mxCell>
        <mxCell id="GJIkSr5zV4e2vEJDAlvQ-14" value="" style="endArrow=none;html=1;rounded=0;entryX=0.038;entryY=0.752;entryDx=0;entryDy=0;entryPerimeter=0;exitX=1;exitY=0.25;exitDx=0;exitDy=0;" edge="1" parent="1" source="GJIkSr5zV4e2vEJDAlvQ-1" target="GJIkSr5zV4e2vEJDAlvQ-6">
          <mxGeometry width="50" height="50" relative="1" as="geometry">
            <mxPoint x="110" y="-20" as="sourcePoint" />
            <mxPoint x="160" y="-70" as="targetPoint" />
          </mxGeometry>
        </mxCell>
        <mxCell id="GJIkSr5zV4e2vEJDAlvQ-15" value="" style="endArrow=none;html=1;rounded=0;exitX=0;exitY=0;exitDx=0;exitDy=0;entryX=0.925;entryY=0.973;entryDx=0;entryDy=0;entryPerimeter=0;" edge="1" parent="1" source="GJIkSr5zV4e2vEJDAlvQ-7" target="GJIkSr5zV4e2vEJDAlvQ-1">
          <mxGeometry width="50" height="50" relative="1" as="geometry">
            <mxPoint x="140" y="60" as="sourcePoint" />
            <mxPoint x="180" y="10" as="targetPoint" />
          </mxGeometry>
        </mxCell>
        <mxCell id="GJIkSr5zV4e2vEJDAlvQ-16" value="SİPARİŞ" style="rounded=0;whiteSpace=wrap;html=1;" vertex="1" parent="1">
          <mxGeometry y="250" width="120" height="60" as="geometry" />
        </mxCell>
        <mxCell id="GJIkSr5zV4e2vEJDAlvQ-17" value="id &lt;b&gt;(PK)&lt;/b&gt;" style="ellipse;whiteSpace=wrap;html=1;" vertex="1" parent="1">
          <mxGeometry x="-80" y="180" width="80" height="50" as="geometry" />
        </mxCell>
        <mxCell id="GJIkSr5zV4e2vEJDAlvQ-18" value="musteri_id &lt;b&gt;(FK)&lt;/b&gt;" style="ellipse;whiteSpace=wrap;html=1;" vertex="1" parent="1">
          <mxGeometry x="-120" y="260" width="80" height="50" as="geometry" />
        </mxCell>
        <mxCell id="GJIkSr5zV4e2vEJDAlvQ-19" value="odeme_turu" style="ellipse;whiteSpace=wrap;html=1;" vertex="1" parent="1">
          <mxGeometry x="-60" y="330" width="80" height="50" as="geometry" />
        </mxCell>
        <mxCell id="GJIkSr5zV4e2vEJDAlvQ-20" value="toplam_tutar" style="ellipse;whiteSpace=wrap;html=1;" vertex="1" parent="1">
          <mxGeometry x="100" y="180" width="80" height="50" as="geometry" />
        </mxCell>
        <mxCell id="GJIkSr5zV4e2vEJDAlvQ-22" value="tarih" style="ellipse;whiteSpace=wrap;html=1;" vertex="1" parent="1">
          <mxGeometry x="120" y="330" width="80" height="50" as="geometry" />
        </mxCell>
        <mxCell id="GJIkSr5zV4e2vEJDAlvQ-23" value="" style="endArrow=none;html=1;rounded=0;exitX=0.5;exitY=0;exitDx=0;exitDy=0;entryX=0.072;entryY=0.993;entryDx=0;entryDy=0;entryPerimeter=0;" edge="1" parent="1" source="GJIkSr5zV4e2vEJDAlvQ-19" target="GJIkSr5zV4e2vEJDAlvQ-16">
          <mxGeometry width="50" height="50" relative="1" as="geometry">
            <mxPoint x="-40" y="330" as="sourcePoint" />
            <mxPoint x="10" y="280" as="targetPoint" />
          </mxGeometry>
        </mxCell>
        <mxCell id="GJIkSr5zV4e2vEJDAlvQ-24" value="" style="endArrow=none;html=1;rounded=0;exitX=1;exitY=0.5;exitDx=0;exitDy=0;entryX=0;entryY=0.5;entryDx=0;entryDy=0;" edge="1" parent="1" source="GJIkSr5zV4e2vEJDAlvQ-18" target="GJIkSr5zV4e2vEJDAlvQ-16">
          <mxGeometry width="50" height="50" relative="1" as="geometry">
            <mxPoint x="-50" y="290" as="sourcePoint" />
            <mxPoint y="240" as="targetPoint" />
          </mxGeometry>
        </mxCell>
        <mxCell id="GJIkSr5zV4e2vEJDAlvQ-25" value="" style="endArrow=none;html=1;rounded=0;entryX=0.258;entryY=0.928;entryDx=0;entryDy=0;entryPerimeter=0;exitX=0.845;exitY=0.02;exitDx=0;exitDy=0;exitPerimeter=0;" edge="1" parent="1" source="GJIkSr5zV4e2vEJDAlvQ-16" target="GJIkSr5zV4e2vEJDAlvQ-20">
          <mxGeometry width="50" height="50" relative="1" as="geometry">
            <mxPoint x="70" y="260" as="sourcePoint" />
            <mxPoint x="120" y="210" as="targetPoint" />
          </mxGeometry>
        </mxCell>
        <mxCell id="GJIkSr5zV4e2vEJDAlvQ-26" value="" style="endArrow=none;html=1;rounded=0;entryX=0.945;entryY=1.047;entryDx=0;entryDy=0;entryPerimeter=0;exitX=0;exitY=0;exitDx=0;exitDy=0;" edge="1" parent="1" source="GJIkSr5zV4e2vEJDAlvQ-22" target="GJIkSr5zV4e2vEJDAlvQ-16">
          <mxGeometry width="50" height="50" relative="1" as="geometry">
            <mxPoint x="80" y="360" as="sourcePoint" />
            <mxPoint x="130" y="310" as="targetPoint" />
          </mxGeometry>
        </mxCell>
        <mxCell id="GJIkSr5zV4e2vEJDAlvQ-27" value="" style="endArrow=none;html=1;rounded=0;exitX=0.105;exitY=-0.047;exitDx=0;exitDy=0;exitPerimeter=0;entryX=0.948;entryY=0.848;entryDx=0;entryDy=0;entryPerimeter=0;" edge="1" parent="1" source="GJIkSr5zV4e2vEJDAlvQ-16" target="GJIkSr5zV4e2vEJDAlvQ-17">
          <mxGeometry width="50" height="50" relative="1" as="geometry">
            <mxPoint x="20" y="240" as="sourcePoint" />
            <mxPoint x="70" y="190" as="targetPoint" />
          </mxGeometry>
        </mxCell>
        <mxCell id="GJIkSr5zV4e2vEJDAlvQ-28" value="KATEGORİ" style="rounded=0;whiteSpace=wrap;html=1;" vertex="1" parent="1">
          <mxGeometry x="430" y="-40" width="120" height="60" as="geometry" />
        </mxCell>
        <mxCell id="GJIkSr5zV4e2vEJDAlvQ-29" value="id &lt;b&gt;(PK)&lt;/b&gt;" style="ellipse;whiteSpace=wrap;html=1;" vertex="1" parent="1">
          <mxGeometry x="450" y="-130" width="80" height="50" as="geometry" />
        </mxCell>
        <mxCell id="GJIkSr5zV4e2vEJDAlvQ-30" value="ad" style="ellipse;whiteSpace=wrap;html=1;" vertex="1" parent="1">
          <mxGeometry x="600" y="-35" width="80" height="50" as="geometry" />
        </mxCell>
        <mxCell id="GJIkSr5zV4e2vEJDAlvQ-34" value="" style="endArrow=none;html=1;rounded=0;exitX=0.448;exitY=-0.027;exitDx=0;exitDy=0;exitPerimeter=0;entryX=0.5;entryY=1;entryDx=0;entryDy=0;entryPerimeter=0;" edge="1" parent="1" source="GJIkSr5zV4e2vEJDAlvQ-28" target="GJIkSr5zV4e2vEJDAlvQ-29">
          <mxGeometry width="50" height="50" relative="1" as="geometry">
            <mxPoint x="460" y="-40" as="sourcePoint" />
            <mxPoint x="510" y="-90" as="targetPoint" />
          </mxGeometry>
        </mxCell>
        <mxCell id="GJIkSr5zV4e2vEJDAlvQ-35" value="" style="endArrow=none;html=1;rounded=0;entryX=0;entryY=0.5;entryDx=0;entryDy=0;exitX=1.008;exitY=0.627;exitDx=0;exitDy=0;exitPerimeter=0;" edge="1" parent="1" source="GJIkSr5zV4e2vEJDAlvQ-28" target="GJIkSr5zV4e2vEJDAlvQ-30">
          <mxGeometry width="50" height="50" relative="1" as="geometry">
            <mxPoint x="560" y="40" as="sourcePoint" />
            <mxPoint x="610" y="-10" as="targetPoint" />
          </mxGeometry>
        </mxCell>
        <mxCell id="GJIkSr5zV4e2vEJDAlvQ-36" value="SİPARİŞ DETAY&amp;nbsp;" style="rounded=0;whiteSpace=wrap;html=1;" vertex="1" parent="1">
          <mxGeometry x="430" y="250" width="120" height="60" as="geometry" />
        </mxCell>
        <mxCell id="GJIkSr5zV4e2vEJDAlvQ-37" value="id &lt;b&gt;(PK)&lt;/b&gt;" style="ellipse;whiteSpace=wrap;html=1;" vertex="1" parent="1">
          <mxGeometry x="334" y="170" width="80" height="50" as="geometry" />
        </mxCell>
        <mxCell id="GJIkSr5zV4e2vEJDAlvQ-39" value="adet" style="ellipse;whiteSpace=wrap;html=1;" vertex="1" parent="1">
          <mxGeometry x="560" y="170" width="80" height="50" as="geometry" />
        </mxCell>
        <mxCell id="GJIkSr5zV4e2vEJDAlvQ-40" value="fiyat" style="ellipse;whiteSpace=wrap;html=1;" vertex="1" parent="1">
          <mxGeometry x="590" y="310" width="80" height="50" as="geometry" />
        </mxCell>
        <mxCell id="GJIkSr5zV4e2vEJDAlvQ-41" value="siparis_id&lt;b&gt;(FK)&lt;/b&gt;" style="ellipse;whiteSpace=wrap;html=1;" vertex="1" parent="1">
          <mxGeometry x="330" y="310" width="80" height="50" as="geometry" />
        </mxCell>
        <mxCell id="GJIkSr5zV4e2vEJDAlvQ-42" value="urun_id&lt;b&gt;(FK)&lt;/b&gt;" style="ellipse;whiteSpace=wrap;html=1;" vertex="1" parent="1">
          <mxGeometry x="460" y="350" width="80" height="50" as="geometry" />
        </mxCell>
        <mxCell id="GJIkSr5zV4e2vEJDAlvQ-43" value="" style="endArrow=none;html=1;rounded=0;entryX=0;entryY=1;entryDx=0;entryDy=0;exitX=0.822;exitY=-0.02;exitDx=0;exitDy=0;exitPerimeter=0;" edge="1" parent="1" source="GJIkSr5zV4e2vEJDAlvQ-36" target="GJIkSr5zV4e2vEJDAlvQ-39">
          <mxGeometry width="50" height="50" relative="1" as="geometry">
            <mxPoint x="540" y="260" as="sourcePoint" />
            <mxPoint x="590" y="210" as="targetPoint" />
          </mxGeometry>
        </mxCell>
        <mxCell id="GJIkSr5zV4e2vEJDAlvQ-44" value="" style="endArrow=none;html=1;rounded=0;entryX=0;entryY=1;entryDx=0;entryDy=0;exitX=1;exitY=0.5;exitDx=0;exitDy=0;" edge="1" parent="1" source="GJIkSr5zV4e2vEJDAlvQ-41" target="GJIkSr5zV4e2vEJDAlvQ-36">
          <mxGeometry width="50" height="50" relative="1" as="geometry">
            <mxPoint x="410" y="360" as="sourcePoint" />
            <mxPoint x="460" y="310" as="targetPoint" />
          </mxGeometry>
        </mxCell>
        <mxCell id="GJIkSr5zV4e2vEJDAlvQ-45" value="" style="endArrow=none;html=1;rounded=0;entryX=0.5;entryY=1;entryDx=0;entryDy=0;exitX=0.358;exitY=0.024;exitDx=0;exitDy=0;exitPerimeter=0;" edge="1" parent="1" source="GJIkSr5zV4e2vEJDAlvQ-42" target="GJIkSr5zV4e2vEJDAlvQ-36">
          <mxGeometry width="50" height="50" relative="1" as="geometry">
            <mxPoint x="470" y="360" as="sourcePoint" />
            <mxPoint x="520" y="310" as="targetPoint" />
          </mxGeometry>
        </mxCell>
        <mxCell id="GJIkSr5zV4e2vEJDAlvQ-46" value="" style="endArrow=none;html=1;rounded=0;exitX=0;exitY=0;exitDx=0;exitDy=0;entryX=0.773;entryY=1;entryDx=0;entryDy=0;entryPerimeter=0;" edge="1" parent="1" source="GJIkSr5zV4e2vEJDAlvQ-36" target="GJIkSr5zV4e2vEJDAlvQ-37">
          <mxGeometry width="50" height="50" relative="1" as="geometry">
            <mxPoint x="400" y="250" as="sourcePoint" />
            <mxPoint x="450" y="200" as="targetPoint" />
          </mxGeometry>
        </mxCell>
        <mxCell id="GJIkSr5zV4e2vEJDAlvQ-47" value="" style="endArrow=none;html=1;rounded=0;exitX=0.013;exitY=0.328;exitDx=0;exitDy=0;exitPerimeter=0;entryX=1;entryY=1;entryDx=0;entryDy=0;" edge="1" parent="1" source="GJIkSr5zV4e2vEJDAlvQ-40" target="GJIkSr5zV4e2vEJDAlvQ-36">
          <mxGeometry width="50" height="50" relative="1" as="geometry">
            <mxPoint x="570" y="320" as="sourcePoint" />
            <mxPoint x="620" y="270" as="targetPoint" />
          </mxGeometry>
        </mxCell>
        <mxCell id="GJIkSr5zV4e2vEJDAlvQ-48" value="ÜRÜN" style="rounded=0;whiteSpace=wrap;html=1;" vertex="1" parent="1">
          <mxGeometry x="860" y="250" width="120" height="60" as="geometry" />
        </mxCell>
        <mxCell id="GJIkSr5zV4e2vEJDAlvQ-49" value="id &lt;b&gt;(PK)&lt;/b&gt;" style="ellipse;whiteSpace=wrap;html=1;" vertex="1" parent="1">
          <mxGeometry x="720" y="200" width="80" height="50" as="geometry" />
        </mxCell>
        <mxCell id="GJIkSr5zV4e2vEJDAlvQ-50" value="kategori_id &lt;b&gt;(FK)&lt;/b&gt;" style="ellipse;whiteSpace=wrap;html=1;" vertex="1" parent="1">
          <mxGeometry x="920" y="160" width="80" height="50" as="geometry" />
        </mxCell>
        <mxCell id="GJIkSr5zV4e2vEJDAlvQ-51" value="satici_id &lt;b&gt;(FK)&lt;/b&gt;" style="ellipse;whiteSpace=wrap;html=1;" vertex="1" parent="1">
          <mxGeometry x="1030" y="210" width="80" height="50" as="geometry" />
        </mxCell>
        <mxCell id="GJIkSr5zV4e2vEJDAlvQ-52" value="stok" style="ellipse;whiteSpace=wrap;html=1;" vertex="1" parent="1">
          <mxGeometry x="1010" y="340" width="80" height="50" as="geometry" />
        </mxCell>
        <mxCell id="GJIkSr5zV4e2vEJDAlvQ-53" value="fiyat" style="ellipse;whiteSpace=wrap;html=1;" vertex="1" parent="1">
          <mxGeometry x="880" y="360" width="80" height="50" as="geometry" />
        </mxCell>
        <mxCell id="GJIkSr5zV4e2vEJDAlvQ-54" value="ad" style="ellipse;whiteSpace=wrap;html=1;" vertex="1" parent="1">
          <mxGeometry x="740" y="340" width="80" height="50" as="geometry" />
        </mxCell>
        <mxCell id="GJIkSr5zV4e2vEJDAlvQ-55" value="" style="endArrow=none;html=1;rounded=0;entryX=0;entryY=1;entryDx=0;entryDy=0;" edge="1" parent="1" target="GJIkSr5zV4e2vEJDAlvQ-48">
          <mxGeometry width="50" height="50" relative="1" as="geometry">
            <mxPoint x="810" y="350" as="sourcePoint" />
            <mxPoint x="860" y="300" as="targetPoint" />
          </mxGeometry>
        </mxCell>
        <mxCell id="GJIkSr5zV4e2vEJDAlvQ-56" value="" style="endArrow=none;html=1;rounded=0;entryX=0.5;entryY=1;entryDx=0;entryDy=0;exitX=0.5;exitY=0;exitDx=0;exitDy=0;" edge="1" parent="1" source="GJIkSr5zV4e2vEJDAlvQ-53" target="GJIkSr5zV4e2vEJDAlvQ-48">
          <mxGeometry width="50" height="50" relative="1" as="geometry">
            <mxPoint x="900" y="360" as="sourcePoint" />
            <mxPoint x="950" y="310" as="targetPoint" />
          </mxGeometry>
        </mxCell>
        <mxCell id="GJIkSr5zV4e2vEJDAlvQ-57" value="" style="endArrow=none;html=1;rounded=0;exitX=0;exitY=0;exitDx=0;exitDy=0;entryX=1;entryY=1;entryDx=0;entryDy=0;" edge="1" parent="1" source="GJIkSr5zV4e2vEJDAlvQ-52" target="GJIkSr5zV4e2vEJDAlvQ-48">
          <mxGeometry width="50" height="50" relative="1" as="geometry">
            <mxPoint x="990" y="350" as="sourcePoint" />
            <mxPoint x="1040" y="300" as="targetPoint" />
          </mxGeometry>
        </mxCell>
        <mxCell id="GJIkSr5zV4e2vEJDAlvQ-58" value="" style="endArrow=none;html=1;rounded=0;entryX=0.02;entryY=0.416;entryDx=0;entryDy=0;entryPerimeter=0;exitX=1;exitY=0;exitDx=0;exitDy=0;" edge="1" parent="1" source="GJIkSr5zV4e2vEJDAlvQ-48" target="GJIkSr5zV4e2vEJDAlvQ-51">
          <mxGeometry width="50" height="50" relative="1" as="geometry">
            <mxPoint x="980" y="260" as="sourcePoint" />
            <mxPoint x="1030" y="210" as="targetPoint" />
          </mxGeometry>
        </mxCell>
        <mxCell id="GJIkSr5zV4e2vEJDAlvQ-59" value="" style="endArrow=none;html=1;rounded=0;entryX=0;entryY=1;entryDx=0;entryDy=0;exitX=0.5;exitY=0;exitDx=0;exitDy=0;" edge="1" parent="1" source="GJIkSr5zV4e2vEJDAlvQ-48" target="GJIkSr5zV4e2vEJDAlvQ-50">
          <mxGeometry width="50" height="50" relative="1" as="geometry">
            <mxPoint x="880" y="250" as="sourcePoint" />
            <mxPoint x="930" y="200" as="targetPoint" />
          </mxGeometry>
        </mxCell>
        <mxCell id="GJIkSr5zV4e2vEJDAlvQ-60" value="" style="endArrow=none;html=1;rounded=0;entryX=1;entryY=1;entryDx=0;entryDy=0;exitX=0;exitY=0;exitDx=0;exitDy=0;" edge="1" parent="1" source="GJIkSr5zV4e2vEJDAlvQ-48" target="GJIkSr5zV4e2vEJDAlvQ-49">
          <mxGeometry width="50" height="50" relative="1" as="geometry">
            <mxPoint x="800" y="280" as="sourcePoint" />
            <mxPoint x="850" y="230" as="targetPoint" />
          </mxGeometry>
        </mxCell>
        <mxCell id="GJIkSr5zV4e2vEJDAlvQ-61" value="SATICI" style="rounded=0;whiteSpace=wrap;html=1;" vertex="1" parent="1">
          <mxGeometry x="1270" y="250" width="120" height="60" as="geometry" />
        </mxCell>
        <mxCell id="GJIkSr5zV4e2vEJDAlvQ-62" value="id &lt;b&gt;(PK)&lt;/b&gt;" style="ellipse;whiteSpace=wrap;html=1;" vertex="1" parent="1">
          <mxGeometry x="1290" y="150" width="80" height="50" as="geometry" />
        </mxCell>
        <mxCell id="GJIkSr5zV4e2vEJDAlvQ-63" value="ad" style="ellipse;whiteSpace=wrap;html=1;" vertex="1" parent="1">
          <mxGeometry x="1440" y="255" width="80" height="50" as="geometry" />
        </mxCell>
        <mxCell id="GJIkSr5zV4e2vEJDAlvQ-64" value="adres" style="ellipse;whiteSpace=wrap;html=1;" vertex="1" parent="1">
          <mxGeometry x="1290" y="360" width="80" height="50" as="geometry" />
        </mxCell>
        <mxCell id="GJIkSr5zV4e2vEJDAlvQ-65" value="" style="endArrow=none;html=1;rounded=0;entryX=0.5;entryY=1;entryDx=0;entryDy=0;exitX=0.5;exitY=0;exitDx=0;exitDy=0;" edge="1" parent="1" source="GJIkSr5zV4e2vEJDAlvQ-61" target="GJIkSr5zV4e2vEJDAlvQ-62">
          <mxGeometry width="50" height="50" relative="1" as="geometry">
            <mxPoint x="1290" y="250" as="sourcePoint" />
            <mxPoint x="1340" y="200" as="targetPoint" />
          </mxGeometry>
        </mxCell>
        <mxCell id="GJIkSr5zV4e2vEJDAlvQ-66" value="" style="endArrow=none;html=1;rounded=0;entryX=0;entryY=0.5;entryDx=0;entryDy=0;exitX=1;exitY=0.5;exitDx=0;exitDy=0;" edge="1" parent="1" source="GJIkSr5zV4e2vEJDAlvQ-61" target="GJIkSr5zV4e2vEJDAlvQ-63">
          <mxGeometry width="50" height="50" relative="1" as="geometry">
            <mxPoint x="1400" y="330" as="sourcePoint" />
            <mxPoint x="1450" y="280" as="targetPoint" />
          </mxGeometry>
        </mxCell>
        <mxCell id="GJIkSr5zV4e2vEJDAlvQ-67" value="" style="endArrow=none;html=1;rounded=0;entryX=0.5;entryY=1;entryDx=0;entryDy=0;exitX=0.5;exitY=0;exitDx=0;exitDy=0;" edge="1" parent="1" source="GJIkSr5zV4e2vEJDAlvQ-64" target="GJIkSr5zV4e2vEJDAlvQ-61">
          <mxGeometry width="50" height="50" relative="1" as="geometry">
            <mxPoint x="1310" y="360" as="sourcePoint" />
            <mxPoint x="1360" y="310" as="targetPoint" />
          </mxGeometry>
        </mxCell>
        <mxCell id="GJIkSr5zV4e2vEJDAlvQ-72" value="" style="endArrow=none;html=1;rounded=0;strokeColor=default;align=center;verticalAlign=middle;fontFamily=Helvetica;fontSize=11;fontColor=default;labelBackgroundColor=default;entryX=0.5;entryY=1;entryDx=0;entryDy=0;" edge="1" parent="1" target="GJIkSr5zV4e2vEJDAlvQ-1">
          <mxGeometry relative="1" as="geometry">
            <mxPoint x="60" y="160" as="sourcePoint" />
            <mxPoint x="100" y="150" as="targetPoint" />
          </mxGeometry>
        </mxCell>
        <mxCell id="GJIkSr5zV4e2vEJDAlvQ-73" value="1" style="resizable=0;html=1;whiteSpace=wrap;align=right;verticalAlign=bottom;fontFamily=Helvetica;fontSize=11;fontColor=default;labelBackgroundColor=default;" connectable="0" vertex="1" parent="GJIkSr5zV4e2vEJDAlvQ-72">
          <mxGeometry x="1" relative="1" as="geometry" />
        </mxCell>
        <mxCell id="GJIkSr5zV4e2vEJDAlvQ-74" style="edgeStyle=none;shape=connector;rounded=0;orthogonalLoop=1;jettySize=auto;html=1;entryX=0.5;entryY=0;entryDx=0;entryDy=0;strokeColor=default;align=center;verticalAlign=middle;fontFamily=Helvetica;fontSize=11;fontColor=default;labelBackgroundColor=default;endArrow=none;" edge="1" parent="1" source="GJIkSr5zV4e2vEJDAlvQ-16" target="GJIkSr5zV4e2vEJDAlvQ-16">
          <mxGeometry relative="1" as="geometry">
            <Array as="points">
              <mxPoint x="50" y="250" />
            </Array>
          </mxGeometry>
        </mxCell>
        <mxCell id="GJIkSr5zV4e2vEJDAlvQ-77" value="" style="endArrow=none;html=1;rounded=0;strokeColor=default;align=center;verticalAlign=middle;fontFamily=Helvetica;fontSize=11;fontColor=default;labelBackgroundColor=default;" edge="1" parent="1">
          <mxGeometry relative="1" as="geometry">
            <mxPoint x="60" y="160" as="sourcePoint" />
            <mxPoint x="60" y="250" as="targetPoint" />
          </mxGeometry>
        </mxCell>
        <mxCell id="GJIkSr5zV4e2vEJDAlvQ-78" value="N" style="resizable=0;html=1;whiteSpace=wrap;align=right;verticalAlign=bottom;fontFamily=Helvetica;fontSize=11;fontColor=default;labelBackgroundColor=default;" connectable="0" vertex="1" parent="GJIkSr5zV4e2vEJDAlvQ-77">
          <mxGeometry x="1" relative="1" as="geometry" />
        </mxCell>
        <mxCell id="GJIkSr5zV4e2vEJDAlvQ-83" value="" style="endArrow=none;html=1;rounded=0;strokeColor=default;align=center;verticalAlign=middle;fontFamily=Helvetica;fontSize=11;fontColor=default;labelBackgroundColor=default;" edge="1" parent="1">
          <mxGeometry relative="1" as="geometry">
            <mxPoint x="270" y="279.67" as="sourcePoint" />
            <mxPoint x="430" y="280" as="targetPoint" />
          </mxGeometry>
        </mxCell>
        <mxCell id="GJIkSr5zV4e2vEJDAlvQ-84" value="N" style="resizable=0;html=1;whiteSpace=wrap;align=right;verticalAlign=bottom;fontFamily=Helvetica;fontSize=11;fontColor=default;labelBackgroundColor=default;" connectable="0" vertex="1" parent="GJIkSr5zV4e2vEJDAlvQ-83">
          <mxGeometry x="1" relative="1" as="geometry" />
        </mxCell>
        <mxCell id="GJIkSr5zV4e2vEJDAlvQ-85" value="" style="endArrow=none;html=1;rounded=0;strokeColor=default;align=center;verticalAlign=middle;fontFamily=Helvetica;fontSize=11;fontColor=default;labelBackgroundColor=default;entryX=1;entryY=0.5;entryDx=0;entryDy=0;" edge="1" parent="1" target="GJIkSr5zV4e2vEJDAlvQ-16">
          <mxGeometry relative="1" as="geometry">
            <mxPoint x="270" y="280" as="sourcePoint" />
            <mxPoint x="280" y="300" as="targetPoint" />
          </mxGeometry>
        </mxCell>
        <mxCell id="GJIkSr5zV4e2vEJDAlvQ-86" value="1" style="resizable=0;html=1;whiteSpace=wrap;align=right;verticalAlign=bottom;fontFamily=Helvetica;fontSize=11;fontColor=default;labelBackgroundColor=default;" connectable="0" vertex="1" parent="GJIkSr5zV4e2vEJDAlvQ-85">
          <mxGeometry x="1" relative="1" as="geometry" />
        </mxCell>
        <mxCell id="GJIkSr5zV4e2vEJDAlvQ-87" value="" style="endArrow=none;html=1;rounded=0;strokeColor=default;align=center;verticalAlign=middle;fontFamily=Helvetica;fontSize=11;fontColor=default;labelBackgroundColor=default;entryX=1;entryY=0.5;entryDx=0;entryDy=0;" edge="1" parent="1" target="GJIkSr5zV4e2vEJDAlvQ-36">
          <mxGeometry relative="1" as="geometry">
            <mxPoint x="710" y="280" as="sourcePoint" />
            <mxPoint x="770" y="270" as="targetPoint" />
          </mxGeometry>
        </mxCell>
        <mxCell id="GJIkSr5zV4e2vEJDAlvQ-88" value="N" style="resizable=0;html=1;whiteSpace=wrap;align=right;verticalAlign=bottom;fontFamily=Helvetica;fontSize=11;fontColor=default;labelBackgroundColor=default;" connectable="0" vertex="1" parent="GJIkSr5zV4e2vEJDAlvQ-87">
          <mxGeometry x="1" relative="1" as="geometry" />
        </mxCell>
        <mxCell id="GJIkSr5zV4e2vEJDAlvQ-89" value="" style="endArrow=none;html=1;rounded=0;strokeColor=default;align=center;verticalAlign=middle;fontFamily=Helvetica;fontSize=11;fontColor=default;labelBackgroundColor=default;" edge="1" parent="1">
          <mxGeometry relative="1" as="geometry">
            <mxPoint x="700" y="279.67" as="sourcePoint" />
            <mxPoint x="860" y="279.67" as="targetPoint" />
            <Array as="points">
              <mxPoint x="790" y="279.67" />
            </Array>
          </mxGeometry>
        </mxCell>
        <mxCell id="GJIkSr5zV4e2vEJDAlvQ-90" value="1" style="resizable=0;html=1;whiteSpace=wrap;align=right;verticalAlign=bottom;fontFamily=Helvetica;fontSize=11;fontColor=default;labelBackgroundColor=default;" connectable="0" vertex="1" parent="GJIkSr5zV4e2vEJDAlvQ-89">
          <mxGeometry x="1" relative="1" as="geometry" />
        </mxCell>
        <mxCell id="GJIkSr5zV4e2vEJDAlvQ-91" value="" style="endArrow=none;html=1;rounded=0;strokeColor=default;align=center;verticalAlign=middle;fontFamily=Helvetica;fontSize=11;fontColor=default;labelBackgroundColor=default;entryX=0.938;entryY=1.064;entryDx=0;entryDy=0;entryPerimeter=0;" edge="1" parent="1" target="GJIkSr5zV4e2vEJDAlvQ-28">
          <mxGeometry relative="1" as="geometry">
            <mxPoint x="690" y="110" as="sourcePoint" />
            <mxPoint x="770" y="110" as="targetPoint" />
          </mxGeometry>
        </mxCell>
        <mxCell id="GJIkSr5zV4e2vEJDAlvQ-92" value="1" style="resizable=0;html=1;whiteSpace=wrap;align=right;verticalAlign=bottom;fontFamily=Helvetica;fontSize=11;fontColor=default;labelBackgroundColor=default;" connectable="0" vertex="1" parent="GJIkSr5zV4e2vEJDAlvQ-91">
          <mxGeometry x="1" relative="1" as="geometry" />
        </mxCell>
        <mxCell id="GJIkSr5zV4e2vEJDAlvQ-93" value="" style="endArrow=none;html=1;rounded=0;strokeColor=default;align=center;verticalAlign=middle;fontFamily=Helvetica;fontSize=11;fontColor=default;labelBackgroundColor=default;entryX=0.167;entryY=0;entryDx=0;entryDy=0;entryPerimeter=0;" edge="1" parent="1" target="GJIkSr5zV4e2vEJDAlvQ-48">
          <mxGeometry relative="1" as="geometry">
            <mxPoint x="690" y="110" as="sourcePoint" />
            <mxPoint x="830" y="170" as="targetPoint" />
          </mxGeometry>
        </mxCell>
        <mxCell id="GJIkSr5zV4e2vEJDAlvQ-94" value="N" style="resizable=0;html=1;whiteSpace=wrap;align=right;verticalAlign=bottom;fontFamily=Helvetica;fontSize=11;fontColor=default;labelBackgroundColor=default;" connectable="0" vertex="1" parent="GJIkSr5zV4e2vEJDAlvQ-93">
          <mxGeometry x="1" relative="1" as="geometry" />
        </mxCell>
        <mxCell id="GJIkSr5zV4e2vEJDAlvQ-95" value="" style="endArrow=none;html=1;rounded=0;strokeColor=default;align=center;verticalAlign=middle;fontFamily=Helvetica;fontSize=11;fontColor=default;labelBackgroundColor=default;entryX=1;entryY=0.5;entryDx=0;entryDy=0;" edge="1" parent="1" target="GJIkSr5zV4e2vEJDAlvQ-48">
          <mxGeometry relative="1" as="geometry">
            <mxPoint x="1140" y="280" as="sourcePoint" />
            <mxPoint x="1220" y="310" as="targetPoint" />
          </mxGeometry>
        </mxCell>
        <mxCell id="GJIkSr5zV4e2vEJDAlvQ-96" value="N" style="resizable=0;html=1;whiteSpace=wrap;align=right;verticalAlign=bottom;fontFamily=Helvetica;fontSize=11;fontColor=default;labelBackgroundColor=default;" connectable="0" vertex="1" parent="GJIkSr5zV4e2vEJDAlvQ-95">
          <mxGeometry x="1" relative="1" as="geometry" />
        </mxCell>
        <mxCell id="GJIkSr5zV4e2vEJDAlvQ-100" value="" style="endArrow=none;html=1;rounded=0;strokeColor=default;align=center;verticalAlign=middle;fontFamily=Helvetica;fontSize=11;fontColor=default;labelBackgroundColor=default;" edge="1" parent="1">
          <mxGeometry relative="1" as="geometry">
            <mxPoint x="1110" y="279.67" as="sourcePoint" />
            <mxPoint x="1270" y="279.67" as="targetPoint" />
          </mxGeometry>
        </mxCell>
        <mxCell id="GJIkSr5zV4e2vEJDAlvQ-101" value="1" style="resizable=0;html=1;whiteSpace=wrap;align=right;verticalAlign=bottom;fontFamily=Helvetica;fontSize=11;fontColor=default;labelBackgroundColor=default;" connectable="0" vertex="1" parent="GJIkSr5zV4e2vEJDAlvQ-100">
          <mxGeometry x="1" relative="1" as="geometry" />
        </mxCell>
      </root>
    </mxGraphModel>
  </diagram>
</mxfile>
